<svg xmlns="http://www.w3.org/2000/svg" xmlns:xlink="http://www.w3.org/1999/xlink" contentStyleType="text/css" data-diagram-type="CLASS" height="649px" preserveAspectRatio="none" style="width:1589px;height:649px;background:#FFFFFF;" version="1.1" viewBox="0 0 1589 649" width="1589px" zoomAndPan="magnify"><defs/><g><!--class Vehiculo--><g class="entity" data-entity="Vehiculo" data-source-line="1" data-uid="ent0002" id="entity_Vehiculo"><rect fill="#F1F1F1" height="241.7031" rx="2.5" ry="2.5" style="stroke:#181818;stroke-width:0.5;" width="215.0957" x="882" y="7"/><ellipse cx="958.4463" cy="23" fill="#A9DCDF" rx="11" ry="11" style="stroke:#181818;stroke-width:1;"/><path d="M960.6338,24.7656 L956.4932,24.7656 L956.0713,25.7969 L956.4932,25.7969 Q957.1025,25.7969 957.3682,26.0313 Q957.6338,26.2656 957.6338,26.6563 Q957.6338,27.0313 957.3682,27.2656 Q957.1025,27.5 956.4932,27.5 L954.1963,27.5 Q953.5869,27.5 953.3369,27.2656 Q953.0713,27.0313 953.0713,26.6406 Q953.0713,26.2656 953.3525,26.0313 Q953.6182,25.7813 954.2432,25.7969 L956.915,19.1406 L955.8057,19.1406 Q955.1963,19.1406 954.9307,18.9063 Q954.665,18.6719 954.665,18.2813 Q954.665,17.9063 954.9307,17.6719 Q955.1963,17.4375 955.8057,17.4375 L959.4775,17.4375 L962.8682,25.7969 Q963.4619,25.7969 963.6494,25.9375 Q964.04,26.2031 964.04,26.6563 Q964.04,27.0313 963.7744,27.2656 Q963.5244,27.5 962.915,27.5 L960.6182,27.5 Q960.0088,27.5 959.7432,27.2656 Q959.4775,27.0313 959.4775,26.6406 Q959.4775,26.2656 959.7432,26.0313 Q960.0088,25.7969 960.6182,25.7969 L961.04,25.7969 L960.6338,24.7656 Z M959.915,23.0625 L958.5557,19.6875 L957.1807,23.0625 L959.915,23.0625 Z " fill="#000000"/><text fill="#000000" font-family="sans-serif" font-size="14" font-style="italic" lengthAdjust="spacing" textLength="53.7031" x="978.9463" y="28.7285">Vehiculo</text><line style="stroke:#181818;stroke-width:0.5;" x1="883" x2="1096.0957" y1="39" y2="39"/><rect fill="none" height="6" style="stroke:#C82930;stroke-width:1;" width="6" x="890" y="50.3047"/><text fill="#000000" font-family="sans-serif" font-size="14" lengthAdjust="spacing" textLength="101.1445" x="902" y="57.5332">matricula: String</text><rect fill="none" height="6" style="stroke:#C82930;stroke-width:1;" width="6" x="890" y="67.9141"/><text fill="#000000" font-family="sans-serif" font-size="14" lengthAdjust="spacing" textLength="83.248" x="902" y="75.1426">marca: String</text><rect fill="none" height="6" style="stroke:#C82930;stroke-width:1;" width="6" x="890" y="85.5234"/><text fill="#000000" font-family="sans-serif" font-size="14" lengthAdjust="spacing" textLength="90.2686" x="902" y="92.752">modelo: String</text><rect fill="none" height="6" style="stroke:#C82930;stroke-width:1;" width="6" x="890" y="103.1328"/><text fill="#000000" font-family="sans-serif" font-size="14" lengthAdjust="spacing" textLength="121.3994" x="902" y="110.3613">anioFabricacion: int</text><rect fill="none" height="6" style="stroke:#C82930;stroke-width:1;" width="6" x="890" y="120.7422"/><text fill="#000000" font-family="sans-serif" font-size="14" lengthAdjust="spacing" textLength="90.2549" x="902" y="127.9707">kilometraje: int</text><rect fill="none" height="6" style="stroke:#C82930;stroke-width:1;" width="6" x="890" y="138.3516"/><text fill="#000000" font-family="sans-serif" font-size="14" lengthAdjust="spacing" textLength="87.9512" x="902" y="145.5801">precio: double</text><rect fill="none" height="6" style="stroke:#C82930;stroke-width:1;" width="6" x="890" y="155.9609"/><text fill="#000000" font-family="sans-serif" font-size="14" lengthAdjust="spacing" textLength="93.3994" x="902" y="163.1895">estado: Estado</text><rect fill="none" height="6" style="stroke:#C82930;stroke-width:1;" width="6" x="890" y="173.5703"/><text fill="#000000" font-family="sans-serif" font-size="14" lengthAdjust="spacing" textLength="126.0752" x="902" y="180.7988">propietario: Persona</text><line style="stroke:#181818;stroke-width:0.5;" x1="883" x2="1096.0957" y1="187.875" y2="187.875"/><ellipse cx="893" cy="202.1797" fill="#84BE84" rx="3" ry="3" style="stroke:#038048;stroke-width:1;"/><text fill="#000000" font-family="sans-serif" font-size="14" lengthAdjust="spacing" textLength="137.6963" x="902" y="206.4082">mostrarDatos(): String</text><ellipse cx="893" cy="219.7891" fill="#84BE84" rx="3" ry="3" style="stroke:#038048;stroke-width:1;"/><text fill="#000000" font-family="sans-serif" font-size="14" lengthAdjust="spacing" textLength="189.0957" x="902" y="224.0176">calcularDepreciacion(): double</text><ellipse cx="893" cy="237.3984" fill="#84BE84" rx="3" ry="3" style="stroke:#038048;stroke-width:1;"/><text fill="#000000" font-family="sans-serif" font-size="14" lengthAdjust="spacing" textLength="145.4961" x="902" y="241.627">calcularRiesgo(): String</text></g><!--class Persona--><g class="entity" data-entity="Persona" data-source-line="1" data-uid="ent0003" id="entity_Persona"><rect fill="#F1F1F1" height="153.6563" rx="2.5" ry="2.5" style="stroke:#181818;stroke-width:0.5;" width="240.0264" x="321.5" y="327"/><ellipse cx="411.1909" cy="343" fill="#ADD1B2" rx="11" ry="11" style="stroke:#181818;stroke-width:1;"/><path d="M413.9565,338.875 Q414.1128,338.6563 414.3003,338.5469 Q414.4878,338.4375 414.7065,338.4375 Q415.0815,338.4375 415.3159,338.7031 Q415.5503,338.9531 415.5503,339.5625 L415.5503,341.0156 Q415.5503,341.625 415.3159,341.8906 Q415.0815,342.1563 414.7065,342.1563 Q414.3628,342.1563 414.1597,341.9531 Q413.9565,341.7656 413.8472,341.25 Q413.8003,340.8906 413.6128,340.7031 Q413.2847,340.3281 412.6753,340.1094 Q412.0659,339.8906 411.4409,339.8906 Q410.6753,339.8906 410.0347,340.2188 Q409.4097,340.5469 408.9097,341.2969 Q408.4253,342.0469 408.4253,343.0781 L408.4253,344.1719 Q408.4253,345.4063 409.3159,346.2344 Q410.2065,347.0469 411.8003,347.0469 Q412.7378,347.0469 413.394,346.7969 Q413.7847,346.6406 414.2065,346.2031 Q414.4722,345.9375 414.6128,345.8594 Q414.769,345.7813 414.9722,345.7813 Q415.3003,345.7813 415.5503,346.0469 Q415.8159,346.2969 415.8159,346.6406 Q415.8159,346.9844 415.4722,347.3906 Q414.9722,347.9688 414.1753,348.2969 Q413.0972,348.75 411.8003,348.75 Q410.2847,348.75 409.0815,348.125 Q408.0972,347.625 407.4097,346.5625 Q406.7222,345.4844 406.7222,344.2031 L406.7222,343.0469 Q406.7222,341.7188 407.3315,340.5781 Q407.9565,339.4219 409.0503,338.8125 Q410.144,338.1875 411.3784,338.1875 Q412.1128,338.1875 412.7534,338.3594 Q413.4097,338.5156 413.9565,338.875 Z " fill="#000000"/><text fill="#000000" font-family="sans-serif" font-size="14" lengthAdjust="spacing" textLength="52.1445" x="431.6909" y="348.7285">Persona</text><line style="stroke:#181818;stroke-width:0.5;" x1="322.5" x2="560.5264" y1="359" y2="359"/><rect fill="none" height="6" style="stroke:#C82930;stroke-width:1;" width="6" x="329.5" y="370.3047"/><text fill="#000000" font-family="sans-serif" font-size="14" lengthAdjust="spacing" textLength="91.8203" x="341.5" y="377.5332">nombre: String</text><rect fill="none" height="6" style="stroke:#C82930;stroke-width:1;" width="6" x="329.5" y="387.9141"/><text fill="#000000" font-family="sans-serif" font-size="14" lengthAdjust="spacing" textLength="99.6133" x="341.5" y="395.1426">apellidos: String</text><rect fill="none" height="6" style="stroke:#C82930;stroke-width:1;" width="6" x="329.5" y="405.5234"/><text fill="#000000" font-family="sans-serif" font-size="14" lengthAdjust="spacing" textLength="63.0342" x="341.5" y="412.752">dni: String</text><rect fill="none" height="6" style="stroke:#C82930;stroke-width:1;" width="6" x="329.5" y="423.1328"/><text fill="#000000" font-family="sans-serif" font-size="14" lengthAdjust="spacing" textLength="214.0264" x="341.5" y="430.3613">fechaCaducidadCarnet: LocalDate</text><rect fill="none" height="6" style="stroke:#C82930;stroke-width:1;" width="6" x="329.5" y="440.7422"/><text fill="#000000" font-family="sans-serif" font-size="14" lengthAdjust="spacing" textLength="119.0615" x="341.5" y="447.9707">anioNacimiento: int</text><line style="stroke:#181818;stroke-width:0.5;" x1="322.5" x2="560.5264" y1="455.0469" y2="455.0469"/><ellipse cx="332.5" cy="469.3516" fill="#84BE84" rx="3" ry="3" style="stroke:#038048;stroke-width:1;"/><text fill="#000000" font-family="sans-serif" font-size="14" lengthAdjust="spacing" textLength="132.2822" x="341.5" y="473.5801">validarDNI(): boolean</text></g><!--class Coche--><g class="entity" data-entity="Coche" data-source-line="1" data-uid="ent0004" id="entity_Coche"><rect fill="#F1F1F1" height="118.4375" rx="2.5" ry="2.5" style="stroke:#181818;stroke-width:0.5;" width="239.2129" x="597" y="345"/><ellipse cx="692.1221" cy="361" fill="#ADD1B2" rx="11" ry="11" style="stroke:#181818;stroke-width:1;"/><path d="M694.8877,356.875 Q695.0439,356.6563 695.2314,356.5469 Q695.4189,356.4375 695.6377,356.4375 Q696.0127,356.4375 696.2471,356.7031 Q696.4814,356.9531 696.4814,357.5625 L696.4814,359.0156 Q696.4814,359.625 696.2471,359.8906 Q696.0127,360.1563 695.6377,360.1563 Q695.2939,360.1563 695.0908,359.9531 Q694.8877,359.7656 694.7783,359.25 Q694.7314,358.8906 694.5439,358.7031 Q694.2158,358.3281 693.6064,358.1094 Q692.9971,357.8906 692.3721,357.8906 Q691.6064,357.8906 690.9658,358.2188 Q690.3408,358.5469 689.8408,359.2969 Q689.3564,360.0469 689.3564,361.0781 L689.3564,362.1719 Q689.3564,363.4063 690.2471,364.2344 Q691.1377,365.0469 692.7314,365.0469 Q693.6689,365.0469 694.3252,364.7969 Q694.7158,364.6406 695.1377,364.2031 Q695.4033,363.9375 695.5439,363.8594 Q695.7002,363.7813 695.9033,363.7813 Q696.2314,363.7813 696.4814,364.0469 Q696.7471,364.2969 696.7471,364.6406 Q696.7471,364.9844 696.4033,365.3906 Q695.9033,365.9688 695.1064,366.2969 Q694.0283,366.75 692.7314,366.75 Q691.2158,366.75 690.0127,366.125 Q689.0283,365.625 688.3408,364.5625 Q687.6533,363.4844 687.6533,362.2031 L687.6533,361.0469 Q687.6533,359.7188 688.2627,358.5781 Q688.8877,357.4219 689.9814,356.8125 Q691.0752,356.1875 692.3096,356.1875 Q693.0439,356.1875 693.6846,356.3594 Q694.3408,356.5156 694.8877,356.875 Z " fill="#000000"/><text fill="#000000" font-family="sans-serif" font-size="14" lengthAdjust="spacing" textLength="40.4688" x="712.6221" y="366.7285">Coche</text><line style="stroke:#181818;stroke-width:0.5;" x1="598" x2="835.2129" y1="377" y2="377"/><rect fill="none" height="6" style="stroke:#C82930;stroke-width:1;" width="6" x="605" y="388.3047"/><text fill="#000000" font-family="sans-serif" font-size="14" lengthAdjust="spacing" textLength="98.0479" x="617" y="395.5332">numPuertas: int</text><rect fill="none" height="6" style="stroke:#C82930;stroke-width:1;" width="6" x="605" y="405.9141"/><text fill="#000000" font-family="sans-serif" font-size="14" lengthAdjust="spacing" textLength="213.2129" x="617" y="413.1426">tipoCombustible: TipoCombustible</text><rect fill="none" height="6" style="stroke:#C82930;stroke-width:1;" width="6" x="605" y="423.5234"/><text fill="#000000" font-family="sans-serif" font-size="14" lengthAdjust="spacing" textLength="140.8613" x="617" y="430.752">capacidadMaletero: int</text><rect fill="none" height="6" style="stroke:#C82930;stroke-width:1;" width="6" x="605" y="441.1328"/><text fill="#000000" font-family="sans-serif" font-size="14" lengthAdjust="spacing" textLength="110.4824" x="617" y="448.3613">traccion: Traccion</text><line style="stroke:#181818;stroke-width:0.5;" x1="598" x2="835.2129" y1="455.4375" y2="455.4375"/></g><!--class Sedan--><g class="entity" data-entity="Sedan" data-source-line="1" data-uid="ent0006" id="entity_Sedan"><rect fill="#F1F1F1" height="83.2188" rx="2.5" ry="2.5" style="stroke:#181818;stroke-width:0.5;" width="185.5098" x="232.5" y="551"/><ellipse cx="300.7637" cy="567" fill="#ADD1B2" rx="11" ry="11" style="stroke:#181818;stroke-width:1;"/><path d="M303.5293,562.875 Q303.6855,562.6563 303.873,562.5469 Q304.0605,562.4375 304.2793,562.4375 Q304.6543,562.4375 304.8887,562.7031 Q305.123,562.9531 305.123,563.5625 L305.123,565.0156 Q305.123,565.625 304.8887,565.8906 Q304.6543,566.1563 304.2793,566.1563 Q303.9355,566.1563 303.7324,565.9531 Q303.5293,565.7656 303.4199,565.25 Q303.373,564.8906 303.1855,564.7031 Q302.8574,564.3281 302.248,564.1094 Q301.6387,563.8906 301.0137,563.8906 Q300.248,563.8906 299.6074,564.2188 Q298.9824,564.5469 298.4824,565.2969 Q297.998,566.0469 297.998,567.0781 L297.998,568.1719 Q297.998,569.4063 298.8887,570.2344 Q299.7793,571.0469 301.373,571.0469 Q302.3105,571.0469 302.9668,570.7969 Q303.3574,570.6406 303.7793,570.2031 Q304.0449,569.9375 304.1855,569.8594 Q304.3418,569.7813 304.5449,569.7813 Q304.873,569.7813 305.123,570.0469 Q305.3887,570.2969 305.3887,570.6406 Q305.3887,570.9844 305.0449,571.3906 Q304.5449,571.9688 303.748,572.2969 Q302.6699,572.75 301.373,572.75 Q299.8574,572.75 298.6543,572.125 Q297.6699,571.625 296.9824,570.5625 Q296.2949,569.4844 296.2949,568.2031 L296.2949,567.0469 Q296.2949,565.7188 296.9043,564.5781 Q297.5293,563.4219 298.623,562.8125 Q299.7168,562.1875 300.9512,562.1875 Q301.6855,562.1875 302.3262,562.3594 Q302.9824,562.5156 303.5293,562.875 Z " fill="#000000"/><text fill="#000000" font-family="sans-serif" font-size="14" lengthAdjust="spacing" textLength="40.4824" x="321.2637" y="572.7285">Sedan</text><line style="stroke:#181818;stroke-width:0.5;" x1="233.5" x2="417.0098" y1="583" y2="583"/><rect fill="none" height="6" style="stroke:#C82930;stroke-width:1;" width="6" x="240.5" y="594.3047"/><text fill="#000000" font-family="sans-serif" font-size="14" lengthAdjust="spacing" textLength="141.6475" x="252.5" y="601.5332">espacioInterior: double</text><rect fill="none" height="6" style="stroke:#C82930;stroke-width:1;" width="6" x="240.5" y="611.9141"/><text fill="#000000" font-family="sans-serif" font-size="14" lengthAdjust="spacing" textLength="159.5098" x="252.5" y="619.1426">nivelConfort: NivelConfort</text><line style="stroke:#181818;stroke-width:0.5;" x1="233.5" x2="417.0098" y1="626.2188" y2="626.2188"/></g><!--class SUV--><g class="entity" data-entity="SUV" data-source-line="1" data-uid="ent0008" id="entity_SUV"><rect fill="#F1F1F1" height="83.2188" rx="2.5" ry="2.5" style="stroke:#181818;stroke-width:0.5;" width="194.123" x="453.5" y="551"/><ellipse cx="531.9185" cy="567" fill="#ADD1B2" rx="11" ry="11" style="stroke:#181818;stroke-width:1;"/><path d="M534.6841,562.875 Q534.8403,562.6563 535.0278,562.5469 Q535.2153,562.4375 535.4341,562.4375 Q535.8091,562.4375 536.0435,562.7031 Q536.2778,562.9531 536.2778,563.5625 L536.2778,565.0156 Q536.2778,565.625 536.0435,565.8906 Q535.8091,566.1563 535.4341,566.1563 Q535.0903,566.1563 534.8872,565.9531 Q534.6841,565.7656 534.5747,565.25 Q534.5278,564.8906 534.3403,564.7031 Q534.0122,564.3281 533.4028,564.1094 Q532.7935,563.8906 532.1685,563.8906 Q531.4028,563.8906 530.7622,564.2188 Q530.1372,564.5469 529.6372,565.2969 Q529.1528,566.0469 529.1528,567.0781 L529.1528,568.1719 Q529.1528,569.4063 530.0435,570.2344 Q530.9341,571.0469 532.5278,571.0469 Q533.4653,571.0469 534.1216,570.7969 Q534.5122,570.6406 534.9341,570.2031 Q535.1997,569.9375 535.3403,569.8594 Q535.4966,569.7813 535.6997,569.7813 Q536.0278,569.7813 536.2778,570.0469 Q536.5435,570.2969 536.5435,570.6406 Q536.5435,570.9844 536.1997,571.3906 Q535.6997,571.9688 534.9028,572.2969 Q533.8247,572.75 532.5278,572.75 Q531.0122,572.75 529.8091,572.125 Q528.8247,571.625 528.1372,570.5625 Q527.4497,569.4844 527.4497,568.2031 L527.4497,567.0469 Q527.4497,565.7188 528.0591,564.5781 Q528.6841,563.4219 529.7778,562.8125 Q530.8716,562.1875 532.106,562.1875 Q532.8403,562.1875 533.481,562.3594 Q534.1372,562.5156 534.6841,562.875 Z " fill="#000000"/><text fill="#000000" font-family="sans-serif" font-size="14" lengthAdjust="spacing" textLength="28.7861" x="552.4185" y="572.7285">SUV</text><line style="stroke:#181818;stroke-width:0.5;" x1="454.5" x2="646.623" y1="583" y2="583"/><rect fill="none" height="6" style="stroke:#C82930;stroke-width:1;" width="6" x="461.5" y="594.3047"/><text fill="#000000" font-family="sans-serif" font-size="14" lengthAdjust="spacing" textLength="168.123" x="473.5" y="601.5332">capacidadOffroad: boolean</text><rect fill="none" height="6" style="stroke:#C82930;stroke-width:1;" width="6" x="461.5" y="611.9141"/><text fill="#000000" font-family="sans-serif" font-size="14" lengthAdjust="spacing" textLength="151.7783" x="473.5" y="619.1426">alturaLibreSuelo: double</text><line style="stroke:#181818;stroke-width:0.5;" x1="454.5" x2="646.623" y1="626.2188" y2="626.2188"/></g><!--class Deportivo--><g class="entity" data-entity="Deportivo" data-source-line="1" data-uid="ent0010" id="entity_Deportivo"><rect fill="#F1F1F1" height="100.8281" rx="2.5" ry="2.5" style="stroke:#181818;stroke-width:0.5;" width="186.3506" x="682.5" y="542"/><ellipse cx="741.4668" cy="558" fill="#ADD1B2" rx="11" ry="11" style="stroke:#181818;stroke-width:1;"/><path d="M744.2324,553.875 Q744.3887,553.6563 744.5762,553.5469 Q744.7637,553.4375 744.9824,553.4375 Q745.3574,553.4375 745.5918,553.7031 Q745.8262,553.9531 745.8262,554.5625 L745.8262,556.0156 Q745.8262,556.625 745.5918,556.8906 Q745.3574,557.1563 744.9824,557.1563 Q744.6387,557.1563 744.4355,556.9531 Q744.2324,556.7656 744.123,556.25 Q744.0762,555.8906 743.8887,555.7031 Q743.5605,555.3281 742.9512,555.1094 Q742.3418,554.8906 741.7168,554.8906 Q740.9512,554.8906 740.3105,555.2188 Q739.6855,555.5469 739.1855,556.2969 Q738.7012,557.0469 738.7012,558.0781 L738.7012,559.1719 Q738.7012,560.4063 739.5918,561.2344 Q740.4824,562.0469 742.0762,562.0469 Q743.0137,562.0469 743.6699,561.7969 Q744.0605,561.6406 744.4824,561.2031 Q744.748,560.9375 744.8887,560.8594 Q745.0449,560.7813 745.248,560.7813 Q745.5762,560.7813 745.8262,561.0469 Q746.0918,561.2969 746.0918,561.6406 Q746.0918,561.9844 745.748,562.3906 Q745.248,562.9688 744.4512,563.2969 Q743.373,563.75 742.0762,563.75 Q740.5605,563.75 739.3574,563.125 Q738.373,562.625 737.6855,561.5625 Q736.998,560.4844 736.998,559.2031 L736.998,558.0469 Q736.998,556.7188 737.6074,555.5781 Q738.2324,554.4219 739.3262,553.8125 Q740.4199,553.1875 741.6543,553.1875 Q742.3887,553.1875 743.0293,553.3594 Q743.6855,553.5156 744.2324,553.875 Z " fill="#000000"/><text fill="#000000" font-family="sans-serif" font-size="14" lengthAdjust="spacing" textLength="59.917" x="761.9668" y="563.7285">Deportivo</text><line style="stroke:#181818;stroke-width:0.5;" x1="683.5" x2="867.8506" y1="574" y2="574"/><rect fill="none" height="6" style="stroke:#C82930;stroke-width:1;" width="6" x="690.5" y="585.3047"/><text fill="#000000" font-family="sans-serif" font-size="14" lengthAdjust="spacing" textLength="160.3506" x="702.5" y="592.5332">aceleracion0a100: double</text><rect fill="none" height="6" style="stroke:#C82930;stroke-width:1;" width="6" x="690.5" y="602.9141"/><text fill="#000000" font-family="sans-serif" font-size="14" lengthAdjust="spacing" textLength="94.9443" x="702.5" y="610.1426">potenciaCV: int</text><rect fill="none" height="6" style="stroke:#C82930;stroke-width:1;" width="6" x="690.5" y="620.5234"/><text fill="#000000" font-family="sans-serif" font-size="14" lengthAdjust="spacing" textLength="154.1094" x="702.5" y="627.752">tieneModoPista: boolean</text><line style="stroke:#181818;stroke-width:0.5;" x1="683.5" x2="867.8506" y1="634.8281" y2="634.8281"/></g><!--class Moto--><g class="entity" data-entity="Moto" data-source-line="1" data-uid="ent0012" id="entity_Moto"><rect fill="#F1F1F1" height="118.4375" rx="2.5" ry="2.5" style="stroke:#181818;stroke-width:0.5;" width="236.0684" x="871.5" y="345"/><ellipse cx="969.7222" cy="361" fill="#ADD1B2" rx="11" ry="11" style="stroke:#181818;stroke-width:1;"/><path d="M972.4878,356.875 Q972.644,356.6563 972.8315,356.5469 Q973.019,356.4375 973.2378,356.4375 Q973.6128,356.4375 973.8472,356.7031 Q974.0815,356.9531 974.0815,357.5625 L974.0815,359.0156 Q974.0815,359.625 973.8472,359.8906 Q973.6128,360.1563 973.2378,360.1563 Q972.894,360.1563 972.6909,359.9531 Q972.4878,359.7656 972.3784,359.25 Q972.3315,358.8906 972.144,358.7031 Q971.8159,358.3281 971.2065,358.1094 Q970.5972,357.8906 969.9722,357.8906 Q969.2065,357.8906 968.5659,358.2188 Q967.9409,358.5469 967.4409,359.2969 Q966.9565,360.0469 966.9565,361.0781 L966.9565,362.1719 Q966.9565,363.4063 967.8472,364.2344 Q968.7378,365.0469 970.3315,365.0469 Q971.269,365.0469 971.9253,364.7969 Q972.3159,364.6406 972.7378,364.2031 Q973.0034,363.9375 973.144,363.8594 Q973.3003,363.7813 973.5034,363.7813 Q973.8315,363.7813 974.0815,364.0469 Q974.3472,364.2969 974.3472,364.6406 Q974.3472,364.9844 974.0034,365.3906 Q973.5034,365.9688 972.7065,366.2969 Q971.6284,366.75 970.3315,366.75 Q968.8159,366.75 967.6128,366.125 Q966.6284,365.625 965.9409,364.5625 Q965.2534,363.4844 965.2534,362.2031 L965.2534,361.0469 Q965.2534,359.7188 965.8628,358.5781 Q966.4878,357.4219 967.5815,356.8125 Q968.6753,356.1875 969.9097,356.1875 Q970.644,356.1875 971.2847,356.3594 Q971.9409,356.5156 972.4878,356.875 Z " fill="#000000"/><text fill="#000000" font-family="sans-serif" font-size="14" lengthAdjust="spacing" textLength="31.124" x="990.2222" y="366.7285">Moto</text><line style="stroke:#181818;stroke-width:0.5;" x1="872.5" x2="1106.5684" y1="377" y2="377"/><rect fill="none" height="6" style="stroke:#C82930;stroke-width:1;" width="6" x="879.5" y="388.3047"/><text fill="#000000" font-family="sans-serif" font-size="14" lengthAdjust="spacing" textLength="82.4893" x="891.5" y="395.5332">cilindrada: int</text><rect fill="none" height="6" style="stroke:#C82930;stroke-width:1;" width="6" x="879.5" y="405.9141"/><text fill="#000000" font-family="sans-serif" font-size="14" lengthAdjust="spacing" textLength="52.9238" x="891.5" y="413.1426">peso: int</text><rect fill="none" height="6" style="stroke:#C82930;stroke-width:1;" width="6" x="879.5" y="423.5234"/><text fill="#000000" font-family="sans-serif" font-size="14" lengthAdjust="spacing" textLength="131.5371" x="891.5" y="430.752">alturaAsiento: double</text><rect fill="none" height="6" style="stroke:#C82930;stroke-width:1;" width="6" x="879.5" y="441.1328"/><text fill="#000000" font-family="sans-serif" font-size="14" lengthAdjust="spacing" textLength="210.0684" x="891.5" y="448.3613">tipoTransmision: TipoTransmision</text><line style="stroke:#181818;stroke-width:0.5;" x1="872.5" x2="1106.5684" y1="455.4375" y2="455.4375"/></g><!--class Scooter--><g class="entity" data-entity="Scooter" data-source-line="1" data-uid="ent0014" id="entity_Scooter"><rect fill="#F1F1F1" height="65.6094" rx="2.5" ry="2.5" style="stroke:#181818;stroke-width:0.5;" width="171.5371" x="903.5" y="559.5"/><ellipse cx="960.8945" cy="575.5" fill="#ADD1B2" rx="11" ry="11" style="stroke:#181818;stroke-width:1;"/><path d="M963.6602,571.375 Q963.8164,571.1563 964.0039,571.0469 Q964.1914,570.9375 964.4102,570.9375 Q964.7852,570.9375 965.0195,571.2031 Q965.2539,571.4531 965.2539,572.0625 L965.2539,573.5156 Q965.2539,574.125 965.0195,574.3906 Q964.7852,574.6563 964.4102,574.6563 Q964.0664,574.6563 963.8633,574.4531 Q963.6602,574.2656 963.5508,573.75 Q963.5039,573.3906 963.3164,573.2031 Q962.9883,572.8281 962.3789,572.6094 Q961.7695,572.3906 961.1445,572.3906 Q960.3789,572.3906 959.7383,572.7188 Q959.1133,573.0469 958.6133,573.7969 Q958.1289,574.5469 958.1289,575.5781 L958.1289,576.6719 Q958.1289,577.9063 959.0195,578.7344 Q959.9102,579.5469 961.5039,579.5469 Q962.4414,579.5469 963.0977,579.2969 Q963.4883,579.1406 963.9102,578.7031 Q964.1758,578.4375 964.3164,578.3594 Q964.4727,578.2813 964.6758,578.2813 Q965.0039,578.2813 965.2539,578.5469 Q965.5195,578.7969 965.5195,579.1406 Q965.5195,579.4844 965.1758,579.8906 Q964.6758,580.4688 963.8789,580.7969 Q962.8008,581.25 961.5039,581.25 Q959.9883,581.25 958.7852,580.625 Q957.8008,580.125 957.1133,579.0625 Q956.4258,577.9844 956.4258,576.7031 L956.4258,575.5469 Q956.4258,574.2188 957.0352,573.0781 Q957.6602,571.9219 958.7539,571.3125 Q959.8477,570.6875 961.082,570.6875 Q961.8164,570.6875 962.457,570.8594 Q963.1133,571.0156 963.6602,571.375 Z " fill="#000000"/><text fill="#000000" font-family="sans-serif" font-size="14" lengthAdjust="spacing" textLength="48.248" x="981.3945" y="581.2285">Scooter</text><line style="stroke:#181818;stroke-width:0.5;" x1="904.5" x2="1074.0371" y1="591.5" y2="591.5"/><rect fill="none" height="6" style="stroke:#C82930;stroke-width:1;" width="6" x="911.5" y="602.8047"/><text fill="#000000" font-family="sans-serif" font-size="14" lengthAdjust="spacing" textLength="145.5371" x="923.5" y="610.0332">espacioBajoAsiento: int</text><line style="stroke:#181818;stroke-width:0.5;" x1="904.5" x2="1074.0371" y1="617.1094" y2="617.1094"/></g><!--class DeportivaMoto--><g class="entity" data-entity="DeportivaMoto" data-source-line="1" data-uid="ent0016" id="entity_DeportivaMoto"><rect fill="#F1F1F1" height="83.2188" rx="2.5" ry="2.5" style="stroke:#181818;stroke-width:0.5;" width="190.2129" x="1110.5" y="551"/><ellipse cx="1155.8359" cy="567" fill="#ADD1B2" rx="11" ry="11" style="stroke:#181818;stroke-width:1;"/><path d="M1158.6016,562.875 Q1158.7578,562.6563 1158.9453,562.5469 Q1159.1328,562.4375 1159.3516,562.4375 Q1159.7266,562.4375 1159.9609,562.7031 Q1160.1953,562.9531 1160.1953,563.5625 L1160.1953,565.0156 Q1160.1953,565.625 1159.9609,565.8906 Q1159.7266,566.1563 1159.3516,566.1563 Q1159.0078,566.1563 1158.8047,565.9531 Q1158.6016,565.7656 1158.4922,565.25 Q1158.4453,564.8906 1158.2578,564.7031 Q1157.9297,564.3281 1157.3203,564.1094 Q1156.7109,563.8906 1156.0859,563.8906 Q1155.3203,563.8906 1154.6797,564.2188 Q1154.0547,564.5469 1153.5547,565.2969 Q1153.0703,566.0469 1153.0703,567.0781 L1153.0703,568.1719 Q1153.0703,569.4063 1153.9609,570.2344 Q1154.8516,571.0469 1156.4453,571.0469 Q1157.3828,571.0469 1158.0391,570.7969 Q1158.4297,570.6406 1158.8516,570.2031 Q1159.1172,569.9375 1159.2578,569.8594 Q1159.4141,569.7813 1159.6172,569.7813 Q1159.9453,569.7813 1160.1953,570.0469 Q1160.4609,570.2969 1160.4609,570.6406 Q1160.4609,570.9844 1160.1172,571.3906 Q1159.6172,571.9688 1158.8203,572.2969 Q1157.7422,572.75 1156.4453,572.75 Q1154.9297,572.75 1153.7266,572.125 Q1152.7422,571.625 1152.0547,570.5625 Q1151.3672,569.4844 1151.3672,568.2031 L1151.3672,567.0469 Q1151.3672,565.7188 1151.9766,564.5781 Q1152.6016,563.4219 1153.6953,562.8125 Q1154.7891,562.1875 1156.0234,562.1875 Q1156.7578,562.1875 1157.3984,562.3594 Q1158.0547,562.5156 1158.6016,562.875 Z " fill="#000000"/><text fill="#000000" font-family="sans-serif" font-size="14" lengthAdjust="spacing" textLength="91.041" x="1176.3359" y="572.7285">DeportivaMoto</text><line style="stroke:#181818;stroke-width:0.5;" x1="1111.5" x2="1299.7129" y1="583" y2="583"/><rect fill="none" height="6" style="stroke:#C82930;stroke-width:1;" width="6" x="1118.5" y="594.3047"/><text fill="#000000" font-family="sans-serif" font-size="14" lengthAdjust="spacing" textLength="157.9785" x="1130.5" y="601.5332">velocidadMaxima: double</text><rect fill="none" height="6" style="stroke:#C82930;stroke-width:1;" width="6" x="1118.5" y="611.9141"/><text fill="#000000" font-family="sans-serif" font-size="14" lengthAdjust="spacing" textLength="164.2129" x="1130.5" y="619.1426">tieneQuickShifter: boolean</text><line style="stroke:#181818;stroke-width:0.5;" x1="1111.5" x2="1299.7129" y1="626.2188" y2="626.2188"/></g><!--class Camion--><g class="entity" data-entity="Camion" data-source-line="1" data-uid="ent0018" id="entity_Camion"><rect fill="#F1F1F1" height="118.4375" rx="2.5" ry="2.5" style="stroke:#181818;stroke-width:0.5;" width="188.6748" x="1143" y="345"/><ellipse cx="1208.9668" cy="361" fill="#ADD1B2" rx="11" ry="11" style="stroke:#181818;stroke-width:1;"/><path d="M1211.7324,356.875 Q1211.8887,356.6563 1212.0762,356.5469 Q1212.2637,356.4375 1212.4824,356.4375 Q1212.8574,356.4375 1213.0918,356.7031 Q1213.3262,356.9531 1213.3262,357.5625 L1213.3262,359.0156 Q1213.3262,359.625 1213.0918,359.8906 Q1212.8574,360.1563 1212.4824,360.1563 Q1212.1387,360.1563 1211.9355,359.9531 Q1211.7324,359.7656 1211.623,359.25 Q1211.5762,358.8906 1211.3887,358.7031 Q1211.0605,358.3281 1210.4512,358.1094 Q1209.8418,357.8906 1209.2168,357.8906 Q1208.4512,357.8906 1207.8105,358.2188 Q1207.1855,358.5469 1206.6855,359.2969 Q1206.2012,360.0469 1206.2012,361.0781 L1206.2012,362.1719 Q1206.2012,363.4063 1207.0918,364.2344 Q1207.9824,365.0469 1209.5762,365.0469 Q1210.5137,365.0469 1211.1699,364.7969 Q1211.5605,364.6406 1211.9824,364.2031 Q1212.248,363.9375 1212.3887,363.8594 Q1212.5449,363.7813 1212.748,363.7813 Q1213.0762,363.7813 1213.3262,364.0469 Q1213.5918,364.2969 1213.5918,364.6406 Q1213.5918,364.9844 1213.248,365.3906 Q1212.748,365.9688 1211.9512,366.2969 Q1210.873,366.75 1209.5762,366.75 Q1208.0605,366.75 1206.8574,366.125 Q1205.873,365.625 1205.1855,364.5625 Q1204.498,363.4844 1204.498,362.2031 L1204.498,361.0469 Q1204.498,359.7188 1205.1074,358.5781 Q1205.7324,357.4219 1206.8262,356.8125 Q1207.9199,356.1875 1209.1543,356.1875 Q1209.8887,356.1875 1210.5293,356.3594 Q1211.1855,356.5156 1211.7324,356.875 Z " fill="#000000"/><text fill="#000000" font-family="sans-serif" font-size="14" lengthAdjust="spacing" textLength="48.2412" x="1229.4668" y="366.7285">Camion</text><line style="stroke:#181818;stroke-width:0.5;" x1="1144" x2="1330.6748" y1="377" y2="377"/><rect fill="none" height="6" style="stroke:#C82930;stroke-width:1;" width="6" x="1151" y="388.3047"/><text fill="#000000" font-family="sans-serif" font-size="14" lengthAdjust="spacing" textLength="151.7783" x="1163" y="395.5332">capacidadCarga: double</text><rect fill="none" height="6" style="stroke:#C82930;stroke-width:1;" width="6" x="1151" y="405.9141"/><text fill="#000000" font-family="sans-serif" font-size="14" lengthAdjust="spacing" textLength="77.0342" x="1163" y="413.1426">numEjes: int</text><rect fill="none" height="6" style="stroke:#C82930;stroke-width:1;" width="6" x="1151" y="423.5234"/><text fill="#000000" font-family="sans-serif" font-size="14" lengthAdjust="spacing" textLength="162.6748" x="1163" y="430.752">longitudRemolque: double</text><rect fill="none" height="6" style="stroke:#C82930;stroke-width:1;" width="6" x="1151" y="441.1328"/><text fill="#000000" font-family="sans-serif" font-size="14" lengthAdjust="spacing" textLength="111.2822" x="1163" y="448.3613">potenciaMotor: int</text><line style="stroke:#181818;stroke-width:0.5;" x1="1144" x2="1330.6748" y1="455.4375" y2="455.4375"/></g><!--class Valorable--><g class="entity" data-entity="Valorable" data-source-line="1" data-uid="ent0020" id="entity_Valorable"><rect fill="#F1F1F1" height="65.6094" rx="2.5" ry="2.5" style="stroke:#181818;stroke-width:0.5;" width="215.0957" x="1367" y="371"/><ellipse cx="1440.7222" cy="387" fill="#B4A7E5" rx="11" ry="11" style="stroke:#181818;stroke-width:1;"/><path d="M1441.6753,383.6406 L1441.6753,390.2969 L1443.394,390.2969 Q1444.0034,390.2969 1444.269,390.5313 Q1444.5347,390.7656 1444.5347,391.1563 Q1444.5347,391.5313 1444.269,391.7656 Q1444.0034,392 1443.394,392 L1438.2534,392 Q1437.644,392 1437.3784,391.7656 Q1437.1128,391.5313 1437.1128,391.1406 Q1437.1128,390.7656 1437.3784,390.5313 Q1437.644,390.2969 1438.2534,390.2969 L1439.9722,390.2969 L1439.9722,383.6406 L1438.2534,383.6406 Q1437.644,383.6406 1437.3784,383.4063 Q1437.1128,383.1719 1437.1128,382.7813 Q1437.1128,382.4063 1437.3784,382.1719 Q1437.644,381.9375 1438.2534,381.9375 L1443.394,381.9375 Q1444.0034,381.9375 1444.269,382.1719 Q1444.5347,382.4063 1444.5347,382.7813 Q1444.5347,383.1719 1444.269,383.4063 Q1444.0034,383.6406 1443.394,383.6406 L1441.6753,383.6406 Z " fill="#000000"/><text fill="#000000" font-family="sans-serif" font-size="14" font-style="italic" lengthAdjust="spacing" textLength="59.1514" x="1461.2222" y="392.7285">Valorable</text><line style="stroke:#181818;stroke-width:0.5;" x1="1368" x2="1581.0957" y1="403" y2="403"/><line style="stroke:#181818;stroke-width:0.5;" x1="1368" x2="1581.0957" y1="411" y2="411"/><ellipse cx="1378" cy="425.3047" fill="#84BE84" rx="3" ry="3" style="stroke:#038048;stroke-width:1;"/><text fill="#000000" font-family="sans-serif" font-size="14" lengthAdjust="spacing" textLength="189.0957" x="1387" y="429.5332">calcularDepreciacion(): double</text></g><!--class Estado--><g class="entity" data-entity="Estado" data-source-line="1" data-uid="ent0021" id="entity_Estado"><rect fill="#F1F1F1" height="83.2188" rx="2.5" ry="2.5" style="stroke:#181818;stroke-width:0.5;" width="96.0273" x="13.5" y="86.5"/><ellipse cx="37.6986" cy="102.5" fill="#EB937F" rx="11" ry="11" style="stroke:#181818;stroke-width:1;"/><path d="M36.558,103.2969 L36.558,105.7969 L40.8861,105.7969 L40.8861,104.875 Q40.8861,104.2656 41.1205,104 Q41.3705,103.7344 41.7455,103.7344 Q42.1205,103.7344 42.3549,104 Q42.5893,104.2656 42.5893,104.875 L42.5893,107.5 L34.5893,107.5 Q33.9643,107.5 33.6986,107.2656 Q33.4486,107.0313 33.4486,106.6406 Q33.4486,106.2656 33.7143,106.0313 Q33.9799,105.7969 34.5893,105.7969 L34.8549,105.7969 L34.8549,99.1406 L34.5893,99.1406 Q33.9643,99.1406 33.6986,98.9063 Q33.4486,98.6719 33.4486,98.2813 Q33.4486,97.9063 33.6986,97.6719 Q33.9643,97.4375 34.5893,97.4375 L42.2143,97.4375 L42.2143,100.0313 Q42.2143,100.6406 41.9799,100.9063 Q41.7611,101.1563 41.3705,101.1563 Q40.9955,101.1563 40.7611,100.9063 Q40.5268,100.6406 40.5268,100.0313 L40.5268,99.1406 L36.558,99.1406 L36.558,101.5938 L38.0424,101.5938 Q38.0424,100.9375 38.1674,100.75 Q38.433,100.3438 38.9018,100.3438 Q39.2768,100.3438 39.5111,100.6094 Q39.7455,100.8594 39.7455,101.4688 L39.7455,103.4375 Q39.7455,103.9844 39.6205,104.1719 Q39.3549,104.5625 38.9018,104.5625 Q38.433,104.5625 38.1674,104.1563 Q38.0424,103.9688 38.0424,103.2969 L36.558,103.2969 Z " fill="#000000"/><text fill="#000000" font-family="sans-serif" font-size="14" lengthAdjust="spacing" textLength="43.5859" x="53.7428" y="108.2285">Estado</text><line style="stroke:#181818;stroke-width:0.5;" x1="14.5" x2="108.5273" y1="118.5" y2="118.5"/><text fill="#000000" font-family="sans-serif" font-size="14" lengthAdjust="spacing" textLength="84.0273" x="19.5" y="137.0332">DISPONIBLE</text><text fill="#000000" font-family="sans-serif" font-size="14" lengthAdjust="spacing" textLength="63.7861" x="19.5" y="154.6426">VENDIDO</text><line style="stroke:#181818;stroke-width:0.5;" x1="14.5" x2="108.5273" y1="161.7188" y2="161.7188"/></g><!--class TipoCombustible--><g class="entity" data-entity="TipoCombustible" data-source-line="5" data-uid="ent0022" id="entity_TipoCombustible"><rect fill="#F1F1F1" height="118.4375" rx="2.5" ry="2.5" style="stroke:#181818;stroke-width:0.5;" width="137.0479" x="145" y="69"/><ellipse cx="160" cy="85" fill="#EB937F" rx="11" ry="11" style="stroke:#181818;stroke-width:1;"/><path d="M158.8594,85.7969 L158.8594,88.2969 L163.1875,88.2969 L163.1875,87.375 Q163.1875,86.7656 163.4219,86.5 Q163.6719,86.2344 164.0469,86.2344 Q164.4219,86.2344 164.6563,86.5 Q164.8906,86.7656 164.8906,87.375 L164.8906,90 L156.8906,90 Q156.2656,90 156,89.7656 Q155.75,89.5313 155.75,89.1406 Q155.75,88.7656 156.0156,88.5313 Q156.2813,88.2969 156.8906,88.2969 L157.1563,88.2969 L157.1563,81.6406 L156.8906,81.6406 Q156.2656,81.6406 156,81.4063 Q155.75,81.1719 155.75,80.7813 Q155.75,80.4063 156,80.1719 Q156.2656,79.9375 156.8906,79.9375 L164.5156,79.9375 L164.5156,82.5313 Q164.5156,83.1406 164.2813,83.4063 Q164.0625,83.6563 163.6719,83.6563 Q163.2969,83.6563 163.0625,83.4063 Q162.8281,83.1406 162.8281,82.5313 L162.8281,81.6406 L158.8594,81.6406 L158.8594,84.0938 L160.3438,84.0938 Q160.3438,83.4375 160.4688,83.25 Q160.7344,82.8438 161.2031,82.8438 Q161.5781,82.8438 161.8125,83.1094 Q162.0469,83.3594 162.0469,83.9688 L162.0469,85.9375 Q162.0469,86.4844 161.9219,86.6719 Q161.6563,87.0625 161.2031,87.0625 Q160.7344,87.0625 160.4688,86.6563 Q160.3438,86.4688 160.3438,85.7969 L158.8594,85.7969 Z " fill="#000000"/><text fill="#000000" font-family="sans-serif" font-size="14" lengthAdjust="spacing" textLength="105.0479" x="174" y="90.7285">TipoCombustible</text><line style="stroke:#181818;stroke-width:0.5;" x1="146" x2="281.0479" y1="101" y2="101"/><text fill="#000000" font-family="sans-serif" font-size="14" lengthAdjust="spacing" textLength="71.5791" x="151" y="119.5332">GASOLINA</text><text fill="#000000" font-family="sans-serif" font-size="14" lengthAdjust="spacing" textLength="49.7998" x="151" y="137.1426">DIESEL</text><text fill="#000000" font-family="sans-serif" font-size="14" lengthAdjust="spacing" textLength="58.3379" x="151" y="154.752">HIBRIDO</text><text fill="#000000" font-family="sans-serif" font-size="14" lengthAdjust="spacing" textLength="80.124" x="151" y="172.3613">ELECTRICO</text><line style="stroke:#181818;stroke-width:0.5;" x1="146" x2="281.0479" y1="179.4375" y2="179.4375"/></g><!--class Traccion--><g class="entity" data-entity="Traccion" data-source-line="11" data-uid="ent0023" id="entity_Traccion"><rect fill="#F1F1F1" height="100.8281" rx="2.5" ry="2.5" style="stroke:#181818;stroke-width:0.5;" width="155.1309" x="317" y="77.5"/><ellipse cx="363.4741" cy="93.5" fill="#EB937F" rx="11" ry="11" style="stroke:#181818;stroke-width:1;"/><path d="M362.3335,94.2969 L362.3335,96.7969 L366.6616,96.7969 L366.6616,95.875 Q366.6616,95.2656 366.896,95 Q367.146,94.7344 367.521,94.7344 Q367.896,94.7344 368.1304,95 Q368.3647,95.2656 368.3647,95.875 L368.3647,98.5 L360.3647,98.5 Q359.7397,98.5 359.4741,98.2656 Q359.2241,98.0313 359.2241,97.6406 Q359.2241,97.2656 359.4897,97.0313 Q359.7554,96.7969 360.3647,96.7969 L360.6304,96.7969 L360.6304,90.1406 L360.3647,90.1406 Q359.7397,90.1406 359.4741,89.9063 Q359.2241,89.6719 359.2241,89.2813 Q359.2241,88.9063 359.4741,88.6719 Q359.7397,88.4375 360.3647,88.4375 L367.9897,88.4375 L367.9897,91.0313 Q367.9897,91.6406 367.7554,91.9063 Q367.5366,92.1563 367.146,92.1563 Q366.771,92.1563 366.5366,91.9063 Q366.3022,91.6406 366.3022,91.0313 L366.3022,90.1406 L362.3335,90.1406 L362.3335,92.5938 L363.8179,92.5938 Q363.8179,91.9375 363.9429,91.75 Q364.2085,91.3438 364.6772,91.3438 Q365.0522,91.3438 365.2866,91.6094 Q365.521,91.8594 365.521,92.4688 L365.521,94.4375 Q365.521,94.9844 365.396,95.1719 Q365.1304,95.5625 364.6772,95.5625 Q364.2085,95.5625 363.9429,95.1563 Q363.8179,94.9688 363.8179,94.2969 L362.3335,94.2969 Z " fill="#000000"/><text fill="#000000" font-family="sans-serif" font-size="14" lengthAdjust="spacing" textLength="53.6826" x="383.9741" y="99.2285">Traccion</text><line style="stroke:#181818;stroke-width:0.5;" x1="318" x2="471.1309" y1="109.5" y2="109.5"/><text fill="#000000" font-family="sans-serif" font-size="14" lengthAdjust="spacing" textLength="84.0205" x="323" y="128.0332">DELANTERA</text><text fill="#000000" font-family="sans-serif" font-size="14" lengthAdjust="spacing" textLength="66.124" x="323" y="145.6426">TRASERA</text><text fill="#000000" font-family="sans-serif" font-size="14" lengthAdjust="spacing" textLength="143.1309" x="323" y="163.252">CUATRO_X_CUATRO</text><line style="stroke:#181818;stroke-width:0.5;" x1="318" x2="471.1309" y1="170.3281" y2="170.3281"/></g><!--class NivelConfort--><g class="entity" data-entity="NivelConfort" data-source-line="16" data-uid="ent0024" id="entity_NivelConfort"><rect fill="#F1F1F1" height="100.8281" rx="2.5" ry="2.5" style="stroke:#181818;stroke-width:0.5;" width="109.0273" x="7" y="353.5"/><ellipse cx="22" cy="369.5" fill="#EB937F" rx="11" ry="11" style="stroke:#181818;stroke-width:1;"/><path d="M20.8594,370.2969 L20.8594,372.7969 L25.1875,372.7969 L25.1875,371.875 Q25.1875,371.2656 25.4219,371 Q25.6719,370.7344 26.0469,370.7344 Q26.4219,370.7344 26.6563,371 Q26.8906,371.2656 26.8906,371.875 L26.8906,374.5 L18.8906,374.5 Q18.2656,374.5 18,374.2656 Q17.75,374.0313 17.75,373.6406 Q17.75,373.2656 18.0156,373.0313 Q18.2813,372.7969 18.8906,372.7969 L19.1563,372.7969 L19.1563,366.1406 L18.8906,366.1406 Q18.2656,366.1406 18,365.9063 Q17.75,365.6719 17.75,365.2813 Q17.75,364.9063 18,364.6719 Q18.2656,364.4375 18.8906,364.4375 L26.5156,364.4375 L26.5156,367.0313 Q26.5156,367.6406 26.2813,367.9063 Q26.0625,368.1563 25.6719,368.1563 Q25.2969,368.1563 25.0625,367.9063 Q24.8281,367.6406 24.8281,367.0313 L24.8281,366.1406 L20.8594,366.1406 L20.8594,368.5938 L22.3438,368.5938 Q22.3438,367.9375 22.4688,367.75 Q22.7344,367.3438 23.2031,367.3438 Q23.5781,367.3438 23.8125,367.6094 Q24.0469,367.8594 24.0469,368.4688 L24.0469,370.4375 Q24.0469,370.9844 23.9219,371.1719 Q23.6563,371.5625 23.2031,371.5625 Q22.7344,371.5625 22.4688,371.1563 Q22.3438,370.9688 22.3438,370.2969 L20.8594,370.2969 Z " fill="#000000"/><text fill="#000000" font-family="sans-serif" font-size="14" lengthAdjust="spacing" textLength="77.0273" x="36" y="375.2285">NivelConfort</text><line style="stroke:#181818;stroke-width:0.5;" x1="8" x2="115.0273" y1="385.5" y2="385.5"/><text fill="#000000" font-family="sans-serif" font-size="14" lengthAdjust="spacing" textLength="52.9033" x="13" y="404.0332">BASICO</text><text fill="#000000" font-family="sans-serif" font-size="14" lengthAdjust="spacing" textLength="45.8896" x="13" y="421.6426">MEDIO</text><text fill="#000000" font-family="sans-serif" font-size="14" lengthAdjust="spacing" textLength="66.1104" x="13" y="439.252">PREMIUM</text><line style="stroke:#181818;stroke-width:0.5;" x1="8" x2="115.0273" y1="446.3281" y2="446.3281"/></g><!--class TipoTransmision--><g class="entity" data-entity="TipoTransmision" data-source-line="21" data-uid="ent0025" id="entity_TipoTransmision"><rect fill="#F1F1F1" height="83.2188" rx="2.5" ry="2.5" style="stroke:#181818;stroke-width:0.5;" width="135.4756" x="151" y="362.5"/><ellipse cx="166" cy="378.5" fill="#EB937F" rx="11" ry="11" style="stroke:#181818;stroke-width:1;"/><path d="M164.8594,379.2969 L164.8594,381.7969 L169.1875,381.7969 L169.1875,380.875 Q169.1875,380.2656 169.4219,380 Q169.6719,379.7344 170.0469,379.7344 Q170.4219,379.7344 170.6563,380 Q170.8906,380.2656 170.8906,380.875 L170.8906,383.5 L162.8906,383.5 Q162.2656,383.5 162,383.2656 Q161.75,383.0313 161.75,382.6406 Q161.75,382.2656 162.0156,382.0313 Q162.2813,381.7969 162.8906,381.7969 L163.1563,381.7969 L163.1563,375.1406 L162.8906,375.1406 Q162.2656,375.1406 162,374.9063 Q161.75,374.6719 161.75,374.2813 Q161.75,373.9063 162,373.6719 Q162.2656,373.4375 162.8906,373.4375 L170.5156,373.4375 L170.5156,376.0313 Q170.5156,376.6406 170.2813,376.9063 Q170.0625,377.1563 169.6719,377.1563 Q169.2969,377.1563 169.0625,376.9063 Q168.8281,376.6406 168.8281,376.0313 L168.8281,375.1406 L164.8594,375.1406 L164.8594,377.5938 L166.3438,377.5938 Q166.3438,376.9375 166.4688,376.75 Q166.7344,376.3438 167.2031,376.3438 Q167.5781,376.3438 167.8125,376.6094 Q168.0469,376.8594 168.0469,377.4688 L168.0469,379.4375 Q168.0469,379.9844 167.9219,380.1719 Q167.6563,380.5625 167.2031,380.5625 Q166.7344,380.5625 166.4688,380.1563 Q166.3438,379.9688 166.3438,379.2969 L164.8594,379.2969 Z " fill="#000000"/><text fill="#000000" font-family="sans-serif" font-size="14" lengthAdjust="spacing" textLength="103.4756" x="180" y="384.2285">TipoTransmision</text><line style="stroke:#181818;stroke-width:0.5;" x1="152" x2="285.4756" y1="394.5" y2="394.5"/><text fill="#000000" font-family="sans-serif" font-size="14" lengthAdjust="spacing" textLength="58.3447" x="157" y="413.0332">MANUAL</text><text fill="#000000" font-family="sans-serif" font-size="14" lengthAdjust="spacing" textLength="91.7793" x="157" y="430.6426">AUTOMATICA</text><line style="stroke:#181818;stroke-width:0.5;" x1="152" x2="285.4756" y1="437.7188" y2="437.7188"/></g><!--reverse link Vehiculo to Coche--><g class="link" data-entity-1="Vehiculo" data-entity-2="Coche" data-source-line="2" data-uid="lnk5" id="link_Vehiculo_Coche"><path d="M868.9212,237.4154 C828.0512,277.3854 796.48,309.93 763.87,344.76" fill="none" id="Vehiculo-backto-Coche" style="stroke:#181818;stroke-width:1;"/><polygon fill="none" points="881.79,224.83,864.726,233.1258,873.1163,241.705,881.79,224.83" style="stroke:#181818;stroke-width:1;"/></g><!--reverse link Vehiculo to Coche--><g class="link" data-entity-1="Vehiculo" data-entity-2="Coche" data-source-line="15" data-uid="lnk27" id="link_Vehiculo_Coche"><path codeLine="15" d="M870.535,262.0002 C837.795,295.2202 815.29,316.95 785.69,344.87" fill="none" id="Vehiculo-backto-Coche-1" style="stroke:#181818;stroke-width:1;"/><polygon fill="none" points="883.17,249.18,866.2616,257.7886,874.8084,266.2119,883.17,249.18" style="stroke:#181818;stroke-width:1;"/></g><!--reverse link Coche to Sedan--><g class="link" data-entity-1="Coche" data-entity-2="Sedan" data-source-line="2" data-uid="lnk7" id="link_Coche_Sedan"><path d="M581.0127,471.3476 C569.0727,477.5976 573.06,475.37 561.5,481 C499.38,511.26 481.79,514.27 418.5,542 C411.88,544.9 405.05,547.92 398.22,550.97" fill="none" id="Coche-backto-Sedan" style="stroke:#181818;stroke-width:1;"/><polygon fill="none" points="596.96,463,578.2301,466.0319,583.7952,476.6634,596.96,463" style="stroke:#181818;stroke-width:1;"/></g><!--reverse link Coche to Sedan--><g class="link" data-entity-1="Coche" data-entity-2="Sedan" data-source-line="18" data-uid="lnk30" id="link_Coche_Sedan"><path codeLine="18" d="M615.4839,471.6635 C603.8839,477.8435 607.93,475.43 596.5,481 C534.38,511.26 516.79,514.27 453.5,542 C442.28,546.92 430.44,552.17 418.64,557.35" fill="none" id="Coche-backto-Sedan-1" style="stroke:#181818;stroke-width:1;"/><polygon fill="none" points="631.37,463.2,612.6627,466.3681,618.305,476.9589,631.37,463.2" style="stroke:#181818;stroke-width:1;"/></g><!--reverse link Coche to SUV--><g class="link" data-entity-1="Coche" data-entity-2="SUV" data-source-line="2" data-uid="lnk9" id="link_Coche_SUV"><path d="M640.4126,476.3563 C613.6926,504.7863 596.59,525.18 575.97,550.82" fill="none" id="Coche-backto-SUV" style="stroke:#181818;stroke-width:1;"/><polygon fill="none" points="652.74,463.24,636.0406,472.2471,644.7847,480.4654,652.74,463.24" style="stroke:#181818;stroke-width:1;"/></g><!--reverse link Coche to SUV--><g class="link" data-entity-1="Coche" data-entity-2="SUV" data-source-line="19" data-uid="lnk31" id="link_Coche_SUV"><path codeLine="19" d="M665.7228,477.0397 C641.9128,505.4697 623.24,525.18 598.09,550.82" fill="none" id="Coche-backto-SUV-1" style="stroke:#181818;stroke-width:1;"/><polygon fill="none" points="677.28,463.24,661.1229,473.1873,670.3227,480.8921,677.28,463.24" style="stroke:#181818;stroke-width:1;"/></g><!--reverse link Coche to Deportivo--><g class="link" data-entity-1="Coche" data-entity-2="Deportivo" data-source-line="2" data-uid="lnk11" id="link_Coche_Deportivo"><path d="M727.6428,480.6336 C734.3628,505.8636 739.14,517.69 748.38,541.86" fill="none" id="Coche-backto-Deportivo" style="stroke:#181818;stroke-width:1;"/><polygon fill="none" points="723.01,463.24,721.8449,482.1779,733.4406,479.0893,723.01,463.24" style="stroke:#181818;stroke-width:1;"/></g><!--reverse link Coche to Deportivo--><g class="link" data-entity-1="Coche" data-entity-2="Deportivo" data-source-line="20" data-uid="lnk32" id="link_Coche_Deportivo"><path codeLine="20" d="M753.7714,480.127 C763.0814,505.357 765.92,517.69 771.89,541.86" fill="none" id="Coche-backto-Deportivo-1" style="stroke:#181818;stroke-width:1;"/><polygon fill="none" points="747.54,463.24,748.1424,482.2041,759.4004,478.0498,747.54,463.24" style="stroke:#181818;stroke-width:1;"/></g><!--reverse link Vehiculo to Moto--><g class="link" data-entity-1="Vehiculo" data-entity-2="Moto" data-source-line="2" data-uid="lnk13" id="link_Vehiculo_Moto"><path d="M976.6558,267.1791 C976.3158,300.3991 977.17,316.95 978.85,344.87" fill="none" id="Vehiculo-backto-Moto" style="stroke:#181818;stroke-width:1;"/><polygon fill="none" points="976.84,249.18,970.6561,267.1177,982.6555,267.2405,976.84,249.18" style="stroke:#181818;stroke-width:1;"/></g><!--reverse link Vehiculo to Moto--><g class="link" data-entity-1="Vehiculo" data-entity-2="Moto" data-source-line="16" data-uid="lnk28" id="link_Vehiculo_Moto"><path codeLine="16" d="M1003.1051,267.1789 C1003.4651,300.3989 1002.56,316.95 1000.77,344.87" fill="none" id="Vehiculo-backto-Moto-1" style="stroke:#181818;stroke-width:1;"/><polygon fill="none" points="1002.91,249.18,997.1054,267.244,1009.1047,267.1139,1002.91,249.18" style="stroke:#181818;stroke-width:1;"/></g><!--reverse link Moto to Scooter--><g class="link" data-entity-1="Moto" data-entity-2="Scooter" data-source-line="2" data-uid="lnk15" id="link_Moto_Scooter"><path d="M976.6854,481.2178 C975.1054,512.9678 976.67,533.06 979.6,559.44" fill="none" id="Moto-backto-Scooter" style="stroke:#181818;stroke-width:1;"/><polygon fill="none" points="977.58,463.24,970.6928,480.9195,982.6779,481.516,977.58,463.24" style="stroke:#181818;stroke-width:1;"/></g><!--reverse link Moto to Scooter--><g class="link" data-entity-1="Moto" data-entity-2="Scooter" data-source-line="21" data-uid="lnk33" id="link_Moto_Scooter"><path codeLine="21" d="M1003.0655,481.2152 C1004.7355,512.9652 1003.08,533.06 999.98,559.44" fill="none" id="Moto-backto-Scooter-1" style="stroke:#181818;stroke-width:1;"/><polygon fill="none" points="1002.12,463.24,997.0737,481.5303,1009.0572,480.9,1002.12,463.24" style="stroke:#181818;stroke-width:1;"/></g><!--reverse link Moto to DeportivaMoto--><g class="link" data-entity-1="Moto" data-entity-2="DeportivaMoto" data-source-line="2" data-uid="lnk17" id="link_Moto_DeportivaMoto"><path d="M1058.4043,475.298 C1089.9143,503.728 1115.75,525.18 1147.64,550.82" fill="none" id="Moto-backto-DeportivaMoto" style="stroke:#181818;stroke-width:1;"/><polygon fill="none" points="1045.04,463.24,1054.385,479.7528,1062.4236,470.8432,1045.04,463.24" style="stroke:#181818;stroke-width:1;"/></g><!--reverse link Moto to DeportivaMoto--><g class="link" data-entity-1="Moto" data-entity-2="DeportivaMoto" data-source-line="22" data-uid="lnk34" id="link_Moto_DeportivaMoto"><path codeLine="22" d="M1083.4497,474.7009 C1117.8797,503.1309 1142.39,525.18 1169.76,550.82" fill="none" id="Moto-backto-DeportivaMoto-1" style="stroke:#181818;stroke-width:1;"/><polygon fill="none" points="1069.57,463.24,1079.6294,479.3275,1087.27,470.0744,1069.57,463.24" style="stroke:#181818;stroke-width:1;"/></g><!--reverse link Vehiculo to Camion--><g class="link" data-entity-1="Vehiculo" data-entity-2="Camion" data-source-line="2" data-uid="lnk19" id="link_Vehiculo_Camion"><path d="M1097.6138,262.593 C1127.3438,295.813 1147.28,316.95 1174.24,344.87" fill="none" id="Vehiculo-backto-Camion" style="stroke:#181818;stroke-width:1;"/><polygon fill="none" points="1085.61,249.18,1093.1429,266.5943,1102.0848,258.5917,1085.61,249.18" style="stroke:#181818;stroke-width:1;"/></g><!--reverse link Vehiculo to Camion--><g class="link" data-entity-1="Vehiculo" data-entity-2="Camion" data-source-line="17" data-uid="lnk29" id="link_Vehiculo_Camion"><path codeLine="17" d="M1109.3551,246.5723 C1144.3951,284.3823 1168.94,312.51 1196.19,344.9" fill="none" id="Vehiculo-backto-Camion-1" style="stroke:#181818;stroke-width:1;"/><polygon fill="none" points="1097.12,233.37,1104.9543,250.6507,1113.7559,242.494,1097.12,233.37" style="stroke:#181818;stroke-width:1;"/></g><!--link Vehiculo to Persona--><g class="link" data-entity-1="Vehiculo" data-entity-2="Persona" data-source-line="14" data-uid="lnk26" id="link_Vehiculo_Persona"><path codeLine="14" d="M881.68,179.14 C798.54,218.27 680.99,274.59 579.5,327 C573.67,330.01 573.0251,330.3271 567.0251,333.4971" fill="none" id="Vehiculo-to-Persona" style="stroke:#181818;stroke-width:1;"/><polygon fill="#181818" points="561.72,336.3,571.5462,335.6324,566.1409,333.9643,567.8091,328.559,561.72,336.3" style="stroke:#181818;stroke-width:1;"/><text fill="#000000" font-family="sans-serif" font-size="13" lengthAdjust="spacing" textLength="61.4263" x="670.5" y="293.4951">propietario</text></g><!--link Vehiculo to Valorable--><g class="link" data-entity-1="Vehiculo" data-entity-2="Valorable" data-source-line="23" data-uid="lnk35" id="link_Vehiculo_Valorable"><path codeLine="23" d="M1097.3,186.7 C1169.18,225.57 1265.54,278.42 1349.5,327 C1373.79,341.06 1385.0565,347.7284 1407.4565,361.4684" fill="none" id="Vehiculo-to-Valorable" style="stroke:#181818;stroke-width:1;stroke-dasharray:7.0,7.0;"/><polygon fill="none" points="1422.8,370.88,1410.5937,356.3539,1404.3193,366.5829,1422.8,370.88" style="stroke:#181818;stroke-width:1;"/></g><!--SRC=[TP113eCW54Jtd08FW0Te6ZUsooPDZEmf_aGIv1E4hZnyezIgFtR9op0pVmhZj4qTS0czqSbYwTDWMR7Y9uGHdIAqHjq3OGrqob7MIa9ku354yyOpYmT6cjzen0ZXZuiw-L6hmI0j8fN5e5wM9jvT6iRCsBe05w9Qx-ONxWDw0r45WvlaEWcHLo1iBaHbIo6sg3DPfZg0LkwVlv7ORFULv25sv332bbcMKxNT-m40]--></g></svg>